<svg width="587" height="432" viewBox="0 0 587 432" fill="none" xmlns="http://www.w3.org/2000/svg">
<mask id="path-1-inside-1_25_3079" fill="white">
<path d="M256 62.6135C256 28.033 227.967 0 193.386 0H62.6135C28.033 0 0 28.033 0 62.6136V256H193.386C227.967 256 256 227.967 256 193.386V62.6135Z"/>
</mask>
<path d="M0 256V264H-8V256H0ZM193.386 8H62.6135V-8H193.386V8ZM8 62.6136V256H-8V62.6136H8ZM0 248H193.386V264H0V248ZM248 193.386V62.6135H264V193.386H248ZM193.386 248C223.549 248 248 223.549 248 193.386H264C264 232.385 232.385 264 193.386 264V248ZM62.6135 8C32.4513 8 8 32.4513 8 62.6136H-8C-8 23.6148 23.6147 -8 62.6135 -8V8ZM193.386 -8C232.385 -8 264 23.6147 264 62.6135H248C248 32.4513 223.549 8 193.386 8V-8Z" fill="#E9F0FC" mask="url(#path-1-inside-1_25_3079)"/>
<mask id="path-3-inside-2_25_3079" fill="white">
<path d="M331 238.614C331 204.033 359.033 176 393.614 176H524.386C558.967 176 587 204.033 587 238.614V432H393.614C359.033 432 331 403.967 331 369.386V238.614Z"/>
</mask>
<path d="M587 432V440H595V432H587ZM393.614 184H524.386V168H393.614V184ZM579 238.614V432H595V238.614H579ZM587 424H393.614V440H587V424ZM339 369.386V238.614H323V369.386H339ZM393.614 424C363.451 424 339 399.549 339 369.386H323C323 408.385 354.615 440 393.614 440V424ZM524.386 184C554.549 184 579 208.451 579 238.614H595C595 199.615 563.385 168 524.386 168V184ZM393.614 168C354.615 168 323 199.615 323 238.614H339C339 208.451 363.451 184 393.614 184V168Z" fill="#E9F0FC" mask="url(#path-3-inside-2_25_3079)"/>
</svg>
