<svg width="24" height="24" viewBox="0 0 24 24" fill="none" xmlns="http://www.w3.org/2000/svg">
<path d="M4 7.2C4 5.43269 5.43269 4 7.2 4H16.8C18.5673 4 20 5.43269 20 7.2V16.8C20 18.5673 18.5673 20 16.8 20H7.2C5.43269 20 4 18.5673 4 16.8V7.2Z" stroke="#E9F0FC" stroke-width="1.5" stroke-linecap="round" stroke-linejoin="round"/>
<path d="M11.9999 15.5554C13.9636 15.5554 15.5554 13.9636 15.5554 11.9999C15.5554 10.0362 13.9636 8.44434 11.9999 8.44434C10.0362 8.44434 8.44434 10.0362 8.44434 11.9999C8.44434 13.9636 10.0362 15.5554 11.9999 15.5554Z" stroke="#E9F0FC" stroke-width="1.5" stroke-linecap="round" stroke-linejoin="round"/>
<path d="M16.7998 7.21756V7.2002" stroke="#E9F0FC" stroke-width="1.5" stroke-linecap="round" stroke-linejoin="round"/>
</svg>
