<svg width="96" height="40" viewBox="0 0 96 40" fill="none" xmlns="http://www.w3.org/2000/svg">
<path d="M0 26.292C0 23.8634 1.96883 21.8945 4.3975 21.8945H13.582C16.0107 21.8945 17.9795 23.8634 17.9795 26.292V39.874H4.3975C1.96882 39.874 0 37.9052 0 35.4765V26.292Z" fill="#1C6BDB"/>
<path d="M40.8233 39.8191L40.7781 23.9881H37.7702L31.9353 33.8259L26.01 23.9881H22.9795V39.8191H26.4171V30.524L31.0533 38.1455H32.7042L37.3631 30.3205L37.3857 39.8191H40.8233Z" fill="white"/>
<path d="M46.0945 25.9556C47.4062 25.9556 48.2882 25.0962 48.2882 23.9202C48.2882 22.8347 47.4062 22.0205 46.0945 22.0205C44.7828 22.0205 43.9008 22.8799 43.9008 23.9881C43.9008 25.0962 44.7828 25.9556 46.0945 25.9556ZM44.3305 39.8191H47.8585V27.6518H44.3305V39.8191Z" fill="white"/>
<path d="M54.5026 29.2575V27.6518H51.1329V39.8191H54.6609V34.0747C54.6609 31.7453 55.95 30.6823 57.895 30.6823C58.1664 30.6823 58.3925 30.7049 58.6865 30.7276V27.4709C56.8094 27.4709 55.362 28.0815 54.5026 29.2575Z" fill="white"/>
<path d="M64.9219 40C68.563 40 70.6663 38.3943 70.6663 36.1327C70.6663 31.3382 63.3162 33.351 63.3162 31.2703C63.3162 30.6371 63.9947 30.1395 65.5778 30.1395C66.6859 30.1395 67.8846 30.3657 69.0832 31.0442L70.2592 28.5338C69.1058 27.8554 67.2513 27.4709 65.5778 27.4709C62.0271 27.4709 59.9465 29.0992 59.9465 31.406C59.9465 36.2684 67.2966 34.233 67.2966 36.2232C67.2966 36.9016 66.6859 37.3313 65.0576 37.3313C63.565 37.3313 61.914 36.8564 60.8285 36.1553L59.6525 38.6883C60.7832 39.4346 62.8639 40 64.9219 40Z" fill="white"/>
<path d="M78.6327 40C82.5 40 85.3043 37.3992 85.3043 33.7354C85.3043 30.0717 82.5 27.4709 78.6327 27.4709C74.7654 27.4709 71.9384 30.0717 71.9384 33.7354C71.9384 37.3992 74.7654 40 78.6327 40ZM78.6327 37.1052C76.8687 37.1052 75.5117 35.8387 75.5117 33.7354C75.5117 31.6322 76.8687 30.3657 78.6327 30.3657C80.3967 30.3657 81.731 31.6322 81.731 33.7354C81.731 35.8387 80.3967 37.1052 78.6327 37.1052Z" fill="white"/>
<path d="M94.5603 36.7433C94.1759 37.0373 93.6557 37.1956 93.1355 37.1956C92.1857 37.1956 91.6203 36.6303 91.6203 35.5899V30.6371H94.6508V27.9232H91.6203V24.9606H88.0922V27.9232H86.2151V30.6371H88.0922V35.6352C88.0922 38.53 89.7658 40 92.638 40C93.7235 40 94.7865 39.7512 95.5102 39.2311L94.5603 36.7433Z" fill="white"/>
<path d="M17.9795 4.3975C17.9795 1.96882 16.0107 0 13.582 0H4.3975C1.96883 0 5.72205e-06 1.96883 5.72205e-06 4.3975V17.9795H13.582C16.0107 17.9795 17.9795 16.0107 17.9795 13.582V4.3975Z" fill="#1C6BDB"/>
<path d="M22.9795 17.8368V2.15314H30.1539C32.1418 2.15314 33.6663 2.68339 34.7275 3.74391C35.6243 4.64011 36.0727 5.84999 36.0727 7.37354C36.0727 9.77836 34.9517 11.399 32.7097 12.2355L36.5435 17.8368H32.5079L29.1001 12.818H26.4322V17.8368H22.9795ZM26.4322 9.7709H29.9297C30.7667 9.7709 31.4168 9.56925 31.8802 9.16596C32.3435 8.74773 32.5752 8.19507 32.5752 7.50797C32.5752 6.77607 32.3361 6.22341 31.8578 5.84999C31.3795 5.46164 30.7144 5.26746 29.8624 5.26746H26.4322V9.7709Z" fill="white"/>
<path d="M37.8362 17.8368L44.5621 2.04111H47.7458L54.4717 17.8368H50.8621L49.4273 14.3191H42.791L41.3561 17.8368H37.8362ZM44.0241 11.272H48.1942L46.1091 6.18607L44.0241 11.272Z" fill="white"/>
<path d="M63.6922 18.1056C61.2559 18.1056 59.268 17.3438 57.7285 15.8203C56.2039 14.2967 55.4417 12.355 55.4417 9.99495C55.4417 7.73949 56.2264 5.82759 57.7957 4.25923C59.3651 2.67593 61.3231 1.88428 63.6698 1.88428C65.0299 1.88428 66.1808 2.06352 67.1224 2.422C68.0641 2.76555 68.9683 3.30327 69.8352 4.03517L67.6605 6.65658C67.0029 6.10392 66.3676 5.70062 65.7548 5.4467C65.142 5.19277 64.4096 5.06581 63.5577 5.06581C62.3022 5.06581 61.2335 5.55126 60.3516 6.52215C59.4847 7.4781 59.0513 8.6357 59.0513 9.99495C59.0513 11.4289 59.4922 12.6164 60.374 13.5574C61.2708 14.4984 62.4142 14.9689 63.8043 14.9689C65.0897 14.9689 66.1733 14.6552 67.0552 14.0279V11.7874H63.5801V8.80747H70.3957V15.6186C68.4377 17.2766 66.2032 18.1056 63.6922 18.1056Z" fill="white"/>
</svg>
