<svg width="114" height="24" viewBox="0 0 114 24" fill="none" xmlns="http://www.w3.org/2000/svg">
<g clip-path="url(#clip0_5_1057)">
<path d="M0 6.13417C0 3.21977 2.36259 0.857178 5.277 0.857178H16.2984C19.2128 0.857178 21.5754 3.21977 21.5754 6.13418V22.4326H5.277C2.36259 22.4326 0 20.07 0 17.1556V6.13417Z" fill="#1C6BDB"/>
<path d="M48.9879 22.3666L48.9337 3.36938H45.3242L38.3224 15.1748L31.212 3.36938H27.5754V22.3666H31.7005V11.2125L37.2639 20.3583H39.2451L44.8357 10.9683L44.8628 22.3666H48.9879Z" fill="#0B1832"/>
<path d="M55.3134 5.73046C56.8875 5.73046 57.9459 4.69919 57.9459 3.28797C57.9459 1.9853 56.8875 1.0083 55.3134 1.0083C53.7394 1.0083 52.6809 2.03958 52.6809 3.36938C52.6809 4.69919 53.7394 5.73046 55.3134 5.73046ZM53.1966 22.3666H57.4302V7.76587H53.1966V22.3666Z" fill="#0B1832"/>
<path d="M65.4031 9.69273V7.76587H61.3594V22.3666H65.5931V15.4733C65.5931 12.678 67.14 11.4025 69.4739 11.4025C69.7996 11.4025 70.071 11.4296 70.4238 11.4568V7.54877C68.1713 7.54877 66.4344 8.28151 65.4031 9.69273Z" fill="#0B1832"/>
<path d="M77.9063 22.5837C82.2756 22.5837 84.7996 20.6568 84.7996 17.9429C84.7996 12.1895 75.9794 14.6049 75.9794 12.1081C75.9794 11.3482 76.7936 10.7511 78.6933 10.7511C80.0231 10.7511 81.4615 11.0225 82.8998 11.8367L84.3111 8.82429C82.927 8.01012 80.7016 7.54877 78.6933 7.54877C74.4325 7.54877 71.9357 9.50276 71.9357 12.2709C71.9357 18.1058 80.7559 15.6633 80.7559 18.0515C80.7559 18.8657 80.0231 19.3813 78.0691 19.3813C76.278 19.3813 74.2968 18.8114 72.9942 17.9701L71.5829 21.0096C72.9399 21.9052 75.4367 22.5837 77.9063 22.5837Z" fill="#0B1832"/>
<path d="M94.3592 22.5837C99 22.5837 102.365 19.4627 102.365 15.0662C102.365 10.6697 99 7.54877 94.3592 7.54877C89.7185 7.54877 86.3261 10.6697 86.3261 15.0662C86.3261 19.4627 89.7185 22.5837 94.3592 22.5837ZM94.3592 19.1099C92.2424 19.1099 90.6141 17.5901 90.6141 15.0662C90.6141 12.5423 92.2424 11.0225 94.3592 11.0225C96.4761 11.0225 98.0772 12.5423 98.0772 15.0662C98.0772 17.5901 96.4761 19.1099 94.3592 19.1099Z" fill="#0B1832"/>
<path d="M113.472 18.6757C113.011 19.0285 112.387 19.2185 111.763 19.2185C110.623 19.2185 109.944 18.54 109.944 17.2916V11.3482H113.581V8.09154H109.944V4.53635H105.711V8.09154H103.458V11.3482H105.711V17.3459C105.711 20.8197 107.719 22.5837 111.166 22.5837C112.468 22.5837 113.744 22.2852 114.612 21.661L113.472 18.6757Z" fill="#0B1832"/>
</g>
<defs>
<clipPath id="clip0_5_1057">
<rect width="114" height="24" fill="white"/>
</clipPath>
</defs>
</svg>
