<svg width="114" height="23" viewBox="0 0 114 23" fill="none" xmlns="http://www.w3.org/2000/svg">
<path d="M0 6.13414C0 3.21973 2.36259 0.857143 5.277 0.857143H16.2984C19.2128 0.857143 21.5754 3.21974 21.5754 6.13414V22.4325H5.277C2.36259 22.4325 0 20.0699 0 17.1555V6.13414Z" fill="#1C6BDB"/>
<path d="M48.9878 22.3666L48.9335 3.36937H45.324L38.3222 15.1748L31.2118 3.36937H27.5752V22.3666H31.7003V11.2125L37.2638 20.3583H39.2449L44.8355 10.9682L44.8626 22.3666H48.9878Z" fill="white"/>
<path d="M55.3132 5.73045C56.8873 5.73045 57.9457 4.69917 57.9457 3.28795C57.9457 1.98529 56.8873 1.00829 55.3132 1.00829C53.7392 1.00829 52.6808 2.03957 52.6808 3.36937C52.6808 4.69917 53.7392 5.73045 55.3132 5.73045ZM53.1964 22.3666H57.4301V7.76586H53.1964V22.3666Z" fill="white"/>
<path d="M65.4029 9.69272V7.76586H61.3593V22.3666H65.5929V15.4733C65.5929 12.678 67.1398 11.4025 69.4738 11.4025C69.7994 11.4025 70.0708 11.4296 70.4236 11.4567V7.54875C68.1711 7.54875 66.4342 8.2815 65.4029 9.69272Z" fill="white"/>
<path d="M77.9061 22.5837C82.2755 22.5837 84.7994 20.6568 84.7994 17.9429C84.7994 12.1895 75.9792 14.6049 75.9792 12.1081C75.9792 11.3482 76.7934 10.7511 78.6931 10.7511C80.0229 10.7511 81.4613 11.0225 82.8997 11.8367L84.3109 8.82428C82.9268 8.01011 80.7014 7.54875 78.6931 7.54875C74.4323 7.54875 71.9356 9.50275 71.9356 12.2709C71.9356 18.1058 80.7557 15.6633 80.7557 18.0515C80.7557 18.8657 80.0229 19.3813 78.0689 19.3813C76.2778 19.3813 74.2966 18.8114 72.994 17.9701L71.5828 21.0096C72.9397 21.9052 75.4365 22.5837 77.9061 22.5837Z" fill="white"/>
<path d="M94.359 22.5837C98.9998 22.5837 102.365 19.4627 102.365 15.0662C102.365 10.6697 98.9998 7.54875 94.359 7.54875C89.7183 7.54875 86.3259 10.6697 86.3259 15.0662C86.3259 19.4627 89.7183 22.5837 94.359 22.5837ZM94.359 19.1099C92.2422 19.1099 90.6139 17.5901 90.6139 15.0662C90.6139 12.5423 92.2422 11.0225 94.359 11.0225C96.4759 11.0225 98.0771 12.5423 98.0771 15.0662C98.0771 17.5901 96.4759 19.1099 94.359 19.1099Z" fill="white"/>
<path d="M113.472 18.6757C113.011 19.0285 112.387 19.2185 111.762 19.2185C110.623 19.2185 109.944 18.54 109.944 17.2916V11.3482H113.581V8.09153H109.944V4.53634H105.71V8.09153H103.458V11.3482H105.71V17.3459C105.71 20.8196 107.719 22.5837 111.165 22.5837C112.468 22.5837 113.744 22.2851 114.612 21.661L113.472 18.6757Z" fill="white"/>
</svg>
